<svg xmlns="http://www.w3.org/2000/svg" width="763.592" height="856.371" viewBox="0 0 763.592 856.371">
  <defs>
    <style>
      .cls-1 {
        fill: #f2f2f2;
      }

      .cls-2 {
        fill: #ddd;
      }

      .cls-3, .cls-8 {
        fill: #d01961;
      }

      .cls-3 {
        opacity: 0.3;
      }

      .cls-4 {
        fill: #ff6584;
      }

      .cls-11, .cls-5, .cls-7 {
        fill: #3f3d56;
      }

      .cls-5, .cls-9 {
        stroke: #3e2679;
      }

      .cls-11, .cls-12, .cls-16, .cls-5, .cls-9 {
        stroke-miterlimit: 10;
        stroke-width: 2px;
      }

      .cls-15, .cls-6 {
        fill: #3e2679;
      }

      .cls-12, .cls-16, .cls-9 {
        fill: none;
      }

      .cls-10 {
        opacity: 0.1;
      }

      .cls-11, .cls-12 {
        stroke: #3f3d56;
      }

      .cls-13 {
        fill: #2f2e41;
      }

      .cls-14 {
        fill: #ffb9b9;
      }

      .cls-15, .cls-16 {
        opacity: 0.2;
      }

      .cls-16 {
        stroke: #000;
      }

      .cls-17 {
        fill: #7b7b7b;
      }

      .cls-18 {
        fill: #e6e6e6;
      }

      .cls-19 {
        fill: #fff;
      }
    </style>
  </defs>
  <g id="Group_4374" data-name="Group 4374" transform="translate(-1016.324 -2060.137)">
    <g id="undraw_digital_currency_qpak" transform="translate(1078.001 2088.001)">
      <circle id="Ellipse_60" data-name="Ellipse 60" class="cls-1" cx="24.066" cy="24.066" r="24.066" transform="translate(429.79 59.156)"/>
      <rect id="Rectangle_3380" data-name="Rectangle 3380" class="cls-1" width="482.824" height="257.957" transform="matrix(0.853, 0.522, -0.522, 0.853, 134.624, -0.001)"/>
      <path id="Path_6354" data-name="Path 6354" class="cls-2" d="M733.345,501.976c-3.76-8.649-9.551-16.245-21.133-22.637a73.812,73.812,0,0,0-19.1-7.521,46.793,46.793,0,0,0,12.259-8.273A42.393,42.393,0,0,0,717.1,446.022a57.99,57.99,0,0,0,2.632-21.208c-.827-12.635-3.309-24.893-9.927-33.692s-15.944-15.568-28.278-20.306c-9.476-3.61-19.178-5.866-34.219-6.693V316.066l-30.083,18.8V364.2H593.16V333.363l-30.835-17.3V364.2h-65.5l21.058,36.1c6.505.008,10.912.609,13.161,1.73a9.945,9.945,0,0,1,4.888,4.512c.978,1.88,1.429,6.317,1.429,13.161V549.957c0,6.769-.451,11.131-1.429,13.086s-1.5,3.685-3.836,4.738-2.407.978-8.874.978h-.075l-26.322,36.1h65.429V652.99h30.835V604.858h24.066V652.99h30.083V604.557c19.554-.978,33.467-3.535,44.672-7.746,14.515-5.415,25.645-13.312,33.617-23.69s11.206-26.247,11.883-38.506C737.932,523.71,736.729,509.647,733.345,501.976Zm-140.26-97.166h.008v-1H614.12c11.83,0,51.253-3.941,51.907,28.255s-51.907,30.88-51.907,30.88H593.093v-2.482h-.008Zm0,91.752h24.066c4.888,0,21.7.745,27.826,1.023a26.7,26.7,0,0,1,7.34,1.309c.865.293,1.685.624,2.572.993a37.4,37.4,0,0,1,10.371,5.249,21.665,21.665,0,0,1,5.362,5.039,28.734,28.734,0,0,1,1.775,2.775,28.182,28.182,0,0,1,3.136,7.739,31.386,31.386,0,0,1,1.105,8.062c0,5.859-1.083,10.709-3.753,14.816-3.617,6.062-9.551,10.356-16.229,13.387-17.267,7.852-39.506,7.295-39.506,7.295H593.085Z" transform="translate(-223.46 -180.199)"/>
      <path id="Path_6355" data-name="Path 6355" class="cls-3" d="M741.11,243.855a2.585,2.585,0,0,0-1.185-1.314,4.058,4.058,0,0,0-1.071-.436,2.62,2.62,0,0,0,.687-.48,2.468,2.468,0,0,0,.658-1.017,3.476,3.476,0,0,0,.148-1.231,3.754,3.754,0,0,0-.557-1.955,3.485,3.485,0,0,0-1.585-1.178,5.777,5.777,0,0,0-1.918-.388v-2.789l-1.686,1.091v1.7h-1.349v-1.79l-1.729-1v2.793H727.85l1.18,2.1a1.84,1.84,0,0,1,.738.1.566.566,0,0,1,.274.262,2.169,2.169,0,0,1,.08.764v7.56a2.17,2.17,0,0,1-.08.759c-.055.113-.084.214-.215.275s-.135.057-.5.057h0l-1.476,2.1h3.668v2.793h1.729v-2.793H734.6v2.793h1.686v-2.811a7.993,7.993,0,0,0,2.5-.45,4.119,4.119,0,0,0,1.885-1.375,4.363,4.363,0,0,0,.666-2.235,5.08,5.08,0,0,0-.228-1.894Zm-7.863-5.639h0v-.058h1.179c.663,0,2.873-.229,2.91,1.64s-2.91,1.792-2.91,1.792h-1.179v-.144h0Zm0,5.325H734.6c.274,0,1.217.043,1.56.059a1.451,1.451,0,0,1,.412.076c.048.017.094.036.144.058a2.069,2.069,0,0,1,.581.3,1.232,1.232,0,0,1,.3.292,1.96,1.96,0,0,1,.337,1.078,1.568,1.568,0,0,1-.21.86,1.992,1.992,0,0,1-.91.777,5.682,5.682,0,0,1-2.215.423h-1.349Z" transform="translate(-280.741 -159.62)"/>
      <circle id="Ellipse_61" data-name="Ellipse 61" class="cls-4" cx="8.821" cy="8.821" r="8.821" transform="translate(591.422 340.183)"/>
      <line id="Line_2" data-name="Line 2" class="cls-5" y1="100.438" transform="translate(669.783 344.591)"/>
      <circle id="Ellipse_62" data-name="Ellipse 62" class="cls-6" cx="14.203" cy="14.203" r="14.203" transform="translate(655.58 330.387)"/>
      <path id="Path_6356" data-name="Path 6356" class="cls-7" d="M981.6,654.379c-20.516,31.462-14.895,71.478-14.895,71.478s38.884-10.994,59.4-42.457S1041,611.923,1041,611.923,1002.114,622.917,981.6,654.379Z" transform="translate(-339.787 -253.553)"/>
      <path id="Path_6357" data-name="Path 6357" class="cls-8" d="M938.163,728.415s-.5-.08-1.419-.266c-.733-.149-1.743-.361-2.975-.654-11.02-2.6-40.317-11.381-59.471-34.472-23.973-28.914-22.964-69.311-22.964-69.311s36.656,5.956,60.81,31.922q1.57,1.674,3.055,3.469c20.86,25.158,22.8,59.008,22.958,67.377C938.179,727.735,938.163,728.415,938.163,728.415Z" transform="translate(-311.356 -256.476)"/>
      <path id="Path_6358" data-name="Path 6358" class="cls-9" d="M927.315,654.379c20.516,31.462,14.895,71.478,14.895,71.478s-38.884-10.994-59.4-42.457-14.895-71.478-14.895-71.478S906.8,622.917,927.315,654.379Z" transform="translate(-315.294 -253.553)"/>
      <path id="Path_6359" data-name="Path 6359" class="cls-10" d="M958.062,737c-.542.654-1.02,1.211-1.413,1.668-.871.994-1.366,1.514-1.366,1.514s-.6-.754-1.61-2.168c-5.542-7.725-23.367-35.195-21.991-66.925q.112-2.495.367-4.936,1.57,1.674,3.055,3.47C955.963,694.786,957.908,728.636,958.062,737Z" transform="translate(-331.26 -267)"/>
      <path id="Path_6360" data-name="Path 6360" class="cls-8" d="M989.707,652.995c-1.622,37.525-29.477,66.8-29.477,66.8S935,688.226,936.625,650.7,966.1,583.9,966.1,583.9,991.329,615.469,989.707,652.995Z" transform="translate(-332.486 -246.606)"/>
      <line id="Line_3" data-name="Line 3" class="cls-9" y1="133.298" x2="6.124" transform="translate(627.744 338.827)"/>
      <line id="Line_4" data-name="Line 4" class="cls-9" x2="636.26" transform="translate(43.222 472.271)"/>
      <circle id="Ellipse_63" data-name="Ellipse 63" class="cls-8" cx="32.135" cy="32.135" r="32.135" transform="translate(146.22 245.439)"/>
      <circle id="Ellipse_64" data-name="Ellipse 64" class="cls-8" cx="32.135" cy="32.135" r="32.135" transform="translate(91.598 321.069)"/>
      <circle id="Ellipse_65" data-name="Ellipse 65" class="cls-8" cx="32.135" cy="32.135" r="32.135" transform="translate(24.371 381.469)"/>
      <line id="Line_5" data-name="Line 5" class="cls-11" y1="58.292" transform="translate(56.478 413.427)"/>
      <circle id="Ellipse_66" data-name="Ellipse 66" class="cls-7" cx="8.243" cy="8.243" r="8.243" transform="translate(48.234 405.184)"/>
      <path id="Path_6361" data-name="Path 6361" class="cls-7" d="M200.09,725.445s-1.178-25.328-25.319-22.384" transform="translate(-143.612 -276.091)"/>
      <line id="Line_6" data-name="Line 6" class="cls-11" y1="194.436" transform="translate(178.376 277.692)"/>
      <circle id="Ellipse_67" data-name="Ellipse 67" class="cls-7" cx="8.243" cy="8.243" r="8.243" transform="translate(170.132 269.357)"/>
      <circle id="Ellipse_68" data-name="Ellipse 68" class="cls-7" cx="8.243" cy="8.243" r="8.243" transform="translate(144.813 410.033)"/>
      <path id="Path_6362" data-name="Path 6362" class="cls-7" d="M362.175,553.057S361,527.729,336.856,530.673" transform="translate(-183.799 -233.349)"/>
      <path id="Path_6363" data-name="Path 6363" class="cls-7" d="M362.175,648.531S361,623.2,336.856,626.147" transform="translate(-183.799 -257.021)"/>
      <path id="Path_6364" data-name="Path 6364" class="cls-12" d="M362.175,743.166s5.3-49.232-25.319-51.587" transform="translate(-183.799 -273.303)"/>
      <circle id="Ellipse_69" data-name="Ellipse 69" class="cls-7" cx="8.243" cy="8.243" r="8.243" transform="translate(195.455 410.033)"/>
      <path id="Path_6365" data-name="Path 6365" class="cls-12" d="M370.411,743.166s-5.3-49.232,25.319-51.587" transform="translate(-192.032 -273.303)"/>
      <circle id="Ellipse_70" data-name="Ellipse 70" class="cls-7" cx="8.243" cy="8.243" r="8.243" transform="translate(195.957 332.707)"/>
      <path id="Path_6366" data-name="Path 6366" class="cls-12" d="M371.079,637.721s-5.3-46.606,25.319-48.961" transform="translate(-192.197 -247.81)"/>
      <line id="Line_7" data-name="Line 7" class="cls-11" y1="118.686" transform="translate(123.763 353.169)"/>
      <circle id="Ellipse_71" data-name="Ellipse 71" class="cls-7" cx="8.243" cy="8.243" r="8.243" transform="translate(115.519 344.925)"/>
      <path id="Path_6367" data-name="Path 6367" class="cls-7" d="M289.557,642.189S288.38,616.86,264.238,619.8" transform="translate(-165.794 -255.448)"/>
      <path id="Path_6368" data-name="Path 6368" class="cls-12" d="M289.557,742.974s5.3-48.706-25.319-51.062" transform="translate(-165.794 -273.386)"/>
      <circle id="Ellipse_72" data-name="Ellipse 72" class="cls-7" cx="8.243" cy="8.243" r="8.243" transform="translate(90.2 410.284)"/>
      <circle id="Ellipse_73" data-name="Ellipse 73" class="cls-1" cx="13.537" cy="13.537" r="13.537" transform="translate(562.905 264.469)"/>
      <path id="Path_6369" data-name="Path 6369" class="cls-10" d="M688.393,635.8c-17.267,7.852-39.506,7.295-39.506,7.295H624.821v-4.6c9.807-2.737,23.367-4.43,38.355-4.43a175.73,175.73,0,0,1,25.217,1.73Z" transform="translate(-255.197 -259.043)"/>
      <path id="Path_6370" data-name="Path 6370" class="cls-10" d="M712.118,649.677c0,8.31-24.246,15.041-54.148,15.041s-54.148-6.731-54.148-15.041c0-4.144,6.032-7.9,15.793-10.612v4.6h24.066s22.238.557,39.506-7.295C700.386,638.878,712.118,643.894,712.118,649.677Z" transform="translate(-249.99 -259.613)"/>
      <rect id="Rectangle_3381" data-name="Rectangle 3381" class="cls-13" width="23.039" height="23.08" transform="translate(391.857 296.409)"/>
      <path id="Path_6371" data-name="Path 6371" class="cls-14" d="M663.417,550.368s1.907,6.675-1.43,7.151a13.028,13.028,0,0,0-5.721,2.384l6.2,8.1h11.442l7.151-7.151s-9.535-7.151-7.628-11.442S663.417,550.368,663.417,550.368Z" transform="translate(-262.993 -237.636)"/>
      <path id="Path_6372" data-name="Path 6372" class="cls-10" d="M663.417,550.368s1.907,6.675-1.43,7.151a13.028,13.028,0,0,0-5.721,2.384l6.2,8.1h11.442l7.151-7.151s-9.535-7.151-7.628-11.442S663.417,550.368,663.417,550.368Z" transform="translate(-262.993 -237.636)"/>
      <path id="Path_6373" data-name="Path 6373" class="cls-14" d="M536.239,523.816,547.2,527.63l7.627.477-.477-6.675-15.732-4.653Z" transform="translate(-132.954 -128.129)"/>
      <path id="Path_6374" data-name="Path 6374" class="cls-6" d="M688.279,657.553s0,6.675.953,6.675,13.826-1.43,17.64,0,9.535-3.814,6.675-6.675-7.527-7.151-10.438-6.2-14.83,3.337-14.83,3.337Z" transform="translate(-270.93 -263.296)"/>
      <path id="Path_6375" data-name="Path 6375" class="cls-6" d="M640.625,651.4s-5.721,11.442-1.907,12.4,8.1-.477,8.582-.954,7.151-2.384,8.1-1.43.954-3.814.954-3.814Z" transform="translate(-258.317 -263.341)"/>
      <path id="Path_6376" data-name="Path 6376" class="cls-13" d="M646.43,630.48s-9.058,12.4-2.384,15.733,38.617,3.337,41,0,3.337-13.826,0-14.779S646.43,630.48,646.43,630.48Z" transform="translate(-259.355 -258.154)"/>
      <path id="Path_6377" data-name="Path 6377" class="cls-15" d="M646.43,630.48s-9.058,12.4-2.384,15.733,38.617,3.337,41,0,3.337-13.826,0-14.779S646.43,630.48,646.43,630.48Z" transform="translate(-259.355 -258.154)"/>
      <circle id="Ellipse_74" data-name="Ellipse 74" class="cls-14" cx="10.965" cy="10.965" r="10.965" transform="translate(393.273 294.138)"/>
      <path id="Path_6378" data-name="Path 6378" class="cls-8" d="M648.025,563.288l9.535-1.907s2.384,7.628,10.012,6.2,9.535-6.2,9.535-6.2,5.721,2.384,6.2,2.384,6.675,2.384,6.675,3.814-7.151,15.733-7.151,15.733l.953,25.745L648.5,608.1l2.384-25.268Z" transform="translate(-260.95 -241.022)"/>
      <path id="Path_6379" data-name="Path 6379" class="cls-14" d="M640.521,580.4s-2.861,25.268-.954,27.175,9.535,7.151,9.535,7.151V609l-3.814-7.151,3.814-16.687Z" transform="translate(-258.69 -245.737)"/>
      <path id="Path_6380" data-name="Path 6380" class="cls-14" d="M703.441,579.448s-1.669,25.983-1.669,26.937-4.291,4.291-5.721,4.291-2.384-2.384-2.384-2.384l3.337-3.814-2.384-19.547Z" transform="translate(-272.266 -245.501)"/>
      <path id="Path_6381" data-name="Path 6381" class="cls-6" d="M693.333,626.2s21.454-11.919,21.931,0S704.3,642.884,704.3,642.884s-29.559,8.864-30.751,5.624-3.576-8.484-1.669-8.961,4.291-1.43,5.244-.477S690,631.919,690,631.919Z" transform="translate(-266.687 -255.779)"/>
      <path id="Path_6382" data-name="Path 6382" class="cls-16" d="M709.553,626.042s-4.291,1.907-5.721,3.337-7.628,3.814-7.628,3.814" transform="translate(-272.895 -257.054)"/>
      <path id="Path_6383" data-name="Path 6383" class="cls-8" d="M648.311,564.871l-2.861-.954s-10.489,10.965-7.151,13.826,5.244,3.814,6.2,4.768,5.721,1.43,5.721,1.43Z" transform="translate(-258.376 -241.651)"/>
      <path id="Path_6384" data-name="Path 6384" class="cls-8" d="M695.9,568.354l4.291.954s3.337,7.151,4.291,8.1-1.43.477-2.861,2.384-2.861,5.244-5.721,5.244-6.675-4.768-6.675-4.768Z" transform="translate(-271.166 -242.751)"/>
      <path id="Path_6385" data-name="Path 6385" class="cls-6" d="M641.021,631.39s-18.117-12.872-24.315-3.337,26.7,22.408,31.466,24.315,9.058,3.814,9.058,3.814,4.291-10.489,4.291-12.4-3.337-1.907-4.291-1.907-5.244-.953-6.2-2.384S641.021,631.39,641.021,631.39Z" transform="translate(-252.993 -256.68)"/>
      <path id="Path_6386" data-name="Path 6386" class="cls-16" d="M635.98,629.212s4.768,3.814,9.058,4.768,5.721,3.337,5.721,3.337" transform="translate(-257.963 -257.84)"/>
      <path id="Path_6387" data-name="Path 6387" class="cls-17" d="M644.919,604.528l.381,20.186a2.527,2.527,0,0,0,2.555,2.479l37.565-.422a2.527,2.527,0,0,0,2.494-2.381l1.14-19.764a2.527,2.527,0,0,0-2.523-2.673H647.446a2.527,2.527,0,0,0-2.527,2.575Z" transform="translate(-260.18 -251.081)"/>
      <path id="Path_6388" data-name="Path 6388" class="cls-13" d="M638.734,552.808c1.023-2.258,2.4-4.376,3.053-6.767.785-2.865.479-5.9.386-8.866a27.837,27.837,0,0,1,.665-7.824,13.451,13.451,0,0,1,3.867-6.733c5-4.46,14.14-4.78,20.241-2.924,2.405.732,4.967,2.126,5.563,4.568.09.369.13.749.231,1.115.5,1.818,2.36,2.969,3.031,4.731.868,2.279-.47,4.758-.645,7.191-.2,2.84,1.192,5.523,2.568,8.016a9.272,9.272,0,0,1,1.588,4.751,6,6,0,0,1-.821,2.619,9.988,9.988,0,0,1-8.39,4.809,5.263,5.263,0,0,1-3.143-.742,4.874,4.874,0,0,1-1.615-4.87,23.622,23.622,0,0,1,1.922-5.055c.217-.51.414-1.029.594-1.554a10.668,10.668,0,1,0-7.037,1.194,14.452,14.452,0,0,1-.7,8.036,30.347,30.347,0,0,1-3.374,5.883,8.123,8.123,0,0,1-2.15,2.406,7.629,7.629,0,0,1-1.831.782,18.98,18.98,0,0,1-8.33,1.173c-2.8-.39-5.577-2.079-6.531-4.742C637.039,557.673,637.711,555.066,638.734,552.808Z" transform="translate(-258.34 -230.422)"/>
      <ellipse id="Ellipse_75" data-name="Ellipse 75" class="cls-13" cx="11.637" cy="6.594" rx="11.637" ry="6.594" transform="translate(392.07 292.352)"/>
      <path id="Path_6389" data-name="Path 6389" class="cls-3" d="M903.153,503.348a2.009,2.009,0,0,0-.92-1.021,3.152,3.152,0,0,0-.832-.339,2.036,2.036,0,0,0,.534-.373,1.917,1.917,0,0,0,.511-.79,2.7,2.7,0,0,0,.115-.956,2.918,2.918,0,0,0-.432-1.519,2.707,2.707,0,0,0-1.232-.916,4.489,4.489,0,0,0-1.491-.3v-2.167l-1.31.848v1.323h-1.048v-1.391l-1.343-.78v2.171H892.85l.917,1.628a1.43,1.43,0,0,1,.573.078.44.44,0,0,1,.213.2,1.684,1.684,0,0,1,.062.594v5.874a1.688,1.688,0,0,1-.062.59c-.043.088-.066.166-.167.214s-.1.044-.387.044h0l-1.147,1.628h2.85v2.171h1.343v-2.171h1.048v2.171h1.31v-2.184a6.211,6.211,0,0,0,1.946-.349,3.2,3.2,0,0,0,1.464-1.068,3.391,3.391,0,0,0,.518-1.736A3.948,3.948,0,0,0,903.153,503.348Zm-6.11-4.382h0v-.045h.916c.515,0,2.233-.178,2.261,1.274s-2.261,1.393-2.261,1.393h-.916v-.112h0Zm0,4.138h1.048c.213,0,.945.034,1.212.046a1.127,1.127,0,0,1,.32.059c.038.013.073.028.112.045a1.61,1.61,0,0,1,.452.237.96.96,0,0,1,.234.227,1.523,1.523,0,0,1,.262.838,1.217,1.217,0,0,1-.163.668,1.547,1.547,0,0,1-.707.6,4.413,4.413,0,0,1-1.721.329h-1.048Z" transform="translate(-321.651 -224.555)"/>
      <circle id="Ellipse_76" data-name="Ellipse 76" class="cls-1" cx="13.537" cy="13.537" r="13.537" transform="translate(34.957 311.849)"/>
      <path id="Path_6390" data-name="Path 6390" class="cls-3" d="M201.154,566.348a2.009,2.009,0,0,0-.921-1.021,3.155,3.155,0,0,0-.832-.339,2.037,2.037,0,0,0,.534-.373,1.918,1.918,0,0,0,.511-.79,2.7,2.7,0,0,0,.115-.956,2.918,2.918,0,0,0-.432-1.519,2.707,2.707,0,0,0-1.232-.916,4.488,4.488,0,0,0-1.491-.3v-2.167l-1.31.848v1.323h-1.048v-1.391l-1.343-.78v2.171H190.85l.917,1.628a1.43,1.43,0,0,1,.573.078.44.44,0,0,1,.213.2,1.686,1.686,0,0,1,.062.594v5.874a1.688,1.688,0,0,1-.062.59c-.043.088-.066.166-.167.214s-.1.044-.387.044h0l-1.147,1.628h2.85v2.171h1.343v-2.171h1.048v2.171h1.31v-2.184a6.209,6.209,0,0,0,1.946-.349,3.2,3.2,0,0,0,1.464-1.068,3.391,3.391,0,0,0,.518-1.737A3.947,3.947,0,0,0,201.154,566.348Zm-6.11-4.382h0v-.045h.916c.515,0,2.233-.178,2.261,1.274s-2.261,1.393-2.261,1.393h-.916v-.112h0Zm0,4.138h1.048c.213,0,.945.034,1.212.046a1.123,1.123,0,0,1,.32.059c.038.013.073.028.112.045a1.612,1.612,0,0,1,.452.237.958.958,0,0,1,.234.227,1.524,1.524,0,0,1,.262.838,1.218,1.218,0,0,1-.163.668,1.548,1.548,0,0,1-.707.6,4.413,4.413,0,0,1-1.721.329h-1.048Z" transform="translate(-147.599 -240.175)"/>
    </g>
    <g id="Group_3437" data-name="Group 3437" transform="translate(362 -36)">
      <path id="Path_6436" data-name="Path 6436" class="cls-18" d="M388.234,156.307a4.293,4.293,0,0,0-4.288,4.288V306.839a4.293,4.293,0,0,0,4.288,4.288H886.9a4.293,4.293,0,0,0,4.288-4.288V160.595a4.293,4.293,0,0,0-4.288-4.288Z" transform="translate(270.378 2484.047)"/>
      <path id="Path_6437" data-name="Path 6437" class="cls-19" d="M394.692,300.382H880.446V167.052H394.692Z" transform="translate(270.378 2484.047)"/>
      <path id="Path_6438" data-name="Path 6438" class="cls-8" d="M819.132,272.722a7.1,7.1,0,0,0,0,14.205h28.411a7.1,7.1,0,1,0,0-14.205Z" transform="translate(270.378 2484.047)"/>
      <rect id="Rectangle_3386" data-name="Rectangle 3386" class="cls-18" width="327.965" height="1.869" transform="translate(797.057 2742.993)"/>
      <circle id="Ellipse_89" data-name="Ellipse 89" class="cls-8" cx="41.369" cy="41.369" r="41.369" transform="translate(687.133 2676.395)"/>
      <path id="Path_6439" data-name="Path 6439" class="cls-7" d="M414.575,135.557,413.539,134l34.08-22.72,23.37,11.218L504.6,101.024l.454.193,66.414,28.331,53.25-26.158,51.708,20.963L741.4,66.805l1.239,1.4L676.8,126.52l-52.007-21.084L571.527,131.6,504.779,103.13l-33.66,21.505L447.77,113.427Z" transform="translate(383 2597)"/>
      <path id="Path_6440" data-name="Path 6440" class="cls-18" d="M532.753,273.7a6.073,6.073,0,0,0,0,12.147H596.29a6.073,6.073,0,0,0,0-12.147Z" transform="translate(270.378 2484.047)"/>
      <path id="Path_6441" data-name="Path 6441" class="cls-19" d="M474.769,228.888c.773-5.177-3.168-7.96-8.558-9.816l1.748-7.013L463.69,211l-1.7,6.828c-1.121-.28-2.274-.543-3.419-.8l1.714-6.873-4.266-1.064-1.75,7.01c-.929-.212-1.841-.421-2.726-.641l0-.022-5.887-1.47-1.136,4.559s3.167.726,3.1.771a2.27,2.27,0,0,1,1.989,2.483l-1.991,7.989a3.54,3.54,0,0,1,.444.142l-.45-.112-2.793,11.191A1.554,1.554,0,0,1,442.867,242c.043.062-3.1-.775-3.1-.775l-2.119,4.888L443.2,247.5c1.033.259,2.046.53,3.042.785l-1.767,7.094,4.264,1.064,1.751-7.018c1.164.316,2.294.608,3.4.883l-1.743,6.985,4.269,1.064,1.767-7.08c7.279,1.378,12.754.822,15.055-5.76,1.857-5.3-.091-8.359-3.921-10.354,2.789-.646,4.89-2.48,5.45-6.27Zm-9.754,13.677c-1.32,5.3-10.244,2.436-13.139,1.717l2.344-9.4c2.894.722,12.171,2.152,10.8,7.68Zm1.319-13.753c-1.2,4.822-8.632,2.372-11.043,1.771l2.125-8.523c2.411.6,10.173,1.722,8.918,6.751Z" transform="translate(270.378 2484.047)"/>
    </g>
    <g id="Group_3439" data-name="Group 3439" transform="translate(3474 -538.652)">
      <path id="Path_6430" data-name="Path 6430" class="cls-18" d="M321.933,624.742a2.925,2.925,0,0,0-2.921,2.921v99.63a2.924,2.924,0,0,0,2.921,2.921H661.655a2.924,2.924,0,0,0,2.921-2.921v-99.63a2.925,2.925,0,0,0-2.921-2.921Z" transform="translate(-2406.622 1974.047)"/>
      <path id="Path_6431" data-name="Path 6431" class="cls-19" d="M329.757,726.319H660.68V635.487H329.757Z" transform="translate(-2410.047 1970.623)"/>
      <path id="Path_6432" data-name="Path 6432" class="cls-8" d="M751.933,741.157a4.839,4.839,0,1,0,0,9.677h19.355a4.839,4.839,0,0,0,0-9.678Z" transform="translate(-2543.07 1936.941)"/>
      <rect id="Rectangle_3385" data-name="Rectangle 3385" class="cls-18" width="223.429" height="1.273" transform="translate(-1990.373 2668.713)"/>
      <circle id="Ellipse_88" data-name="Ellipse 88" class="cls-8" cx="28.183" cy="28.183" r="28.183" transform="translate(-2065.26 2623.343)"/>
      <path id="Path_6433" data-name="Path 6433" class="cls-7" d="M349.31,582.079l-.706-1.059,23.217-15.479,15.921,7.642,22.9-14.631L456.2,577.984l36.277-17.82L527.7,574.445l44.263-39.2.844.953-44.854,39.728-35.43-14.364-36.29,17.827-45.473-19.4-22.93,14.651L371.924,567Z" transform="translate(-2339.33 2079.525)"/>
      <path id="Path_6434" data-name="Path 6434" class="cls-18" d="M465.882,742.134a4.138,4.138,0,0,0,0,8.275h43.285a4.138,4.138,0,0,0,0-8.275Z" transform="translate(-2452.117 1936.63)"/>
      <path id="Path_6435" data-name="Path 6435" class="cls-19" d="M396.83,683.645h4.4l-9.163,9.068a8.555,8.555,0,0,1-12.011,0l-9.162-9.068h4.4l6.961,6.889a5.419,5.419,0,0,0,7.608,0Zm-21.585,25.217h-4.4l9.219-9.124a8.555,8.555,0,0,1,12.011,0l9.219,9.124h-4.4l-7.018-6.945a5.419,5.419,0,0,0-7.608,0Z" transform="translate(-2423.142 1955.273)"/>
    </g>
    <g id="Group_3438" data-name="Group 3438" transform="translate(3201 439)">
      <path id="Path_6442" data-name="Path 6442" class="cls-18" d="M583.261,390.524a3.132,3.132,0,0,0-3.128,3.128V500.333a3.131,3.131,0,0,0,3.128,3.128H947.024a3.132,3.132,0,0,0,3.128-3.128V393.652a3.132,3.132,0,0,0-3.128-3.128Z" transform="translate(-2406.622 1974.047)"/>
      <path id="Path_6443" data-name="Path 6443" class="cls-19" d="M590.878,498.529H945.22V401.27H590.878Z" transform="translate(-2409.529 1971.141)"/>
      <path id="Path_6444" data-name="Path 6444" class="cls-8" d="M1013.4,506.94a5.181,5.181,0,0,0,0,10.362h20.725a5.181,5.181,0,0,0,0-10.362H1013.4Z" transform="translate(-2522.433 1942.553)"/>
      <rect id="Rectangle_3387" data-name="Rectangle 3387" class="cls-18" width="239.24" height="1.363" transform="translate(-1722.37 2439.443)"/>
      <circle id="Ellipse_90" data-name="Ellipse 90" class="cls-8" cx="30.177" cy="30.177" r="30.177" transform="translate(-1802.556 2390.863)"/>
      <path id="Path_6445" data-name="Path 6445" class="cls-7" d="M610.481,351.175l-.756-1.134,24.86-16.573,17.048,8.183,24.52-15.666.332.141,48.446,20.667,38.845-19.081L801.5,343l47.4-41.979.9,1.021-48.028,42.539L763.83,329.2l-38.858,19.088-48.69-20.77-24.555,15.687L634.7,335.033Z" transform="translate(-2332.474 2080.656)"/>
      <path id="Path_6446" data-name="Path 6446" class="cls-18" d="M727.3,507.917a4.43,4.43,0,0,0,0,8.861h46.349a4.43,4.43,0,0,0,0-8.861Z" transform="translate(-2445.236 1942.289)"/>
      <path id="Path_6447" data-name="Path 6447" class="cls-19" d="M537.156,375.866l12.216-17.2-12.216,7.213h0l-12.209-7.213,12.208,17.2h0Z" transform="translate(-2309.538 2065.063)"/>
      <path id="Path_6448" data-name="Path 6448" class="cls-19" d="M537.155,355.192h0l12.209-7.217-12.209-20.258h0l-12.208,20.258Z" transform="translate(-2309.538 2073.434)"/>
    </g>
  </g>
</svg>
