<svg xmlns="http://www.w3.org/2000/svg" width="667.5" height="538.928" viewBox="0 0 667.5 538.928">
  <defs>
    <style>
      .cls-1 {
        fill: #3f3d56;
      }

      .cls-2 {
        fill: #fff;
      }

      .cls-3 {
        fill: #e6e6e6;
      }

      .cls-4 {
        fill: #d01961;
      }

      .cls-5 {
        fill: #a0616a;
      }

      .cls-6 {
        fill: #2f2e41;
      }

      .cls-7 {
        fill: #3e2679;
      }
    </style>
  </defs>
  <g id="Group_6" data-name="Group 6" transform="translate(-231.222 -124.997)">
    <path id="Path_80" data-name="Path 80" class="cls-1" d="M932.041,124.769H731.674A42.594,42.594,0,0,0,690.121,158L588.882,607.058a34.425,34.425,0,0,0,31.888,41.955l205.979,10.148a45.479,45.479,0,0,0,46.991-37.33L931.173,304.34l4.273,1.221,10.992-60.177-4.4-1.1,16.031-88.624a26.225,26.225,0,0,0-26.023-30.894Z" transform="translate(-59.768 0.231)"/>
    <path id="Path_81" data-name="Path 81" class="cls-2" d="M762.12,136.4H738.734a29.436,29.436,0,0,0-28.759,23.16L612.8,604.954a18.237,18.237,0,0,0,16.629,22.087L834.734,640.5a23.622,23.622,0,0,0,24.793-19.383L942.45,160.752A20.69,20.69,0,0,0,922.088,136.4H899.9a9.764,9.764,0,0,0-9.429,7.226h0a8.62,8.62,0,0,1-8.327,6.38H776.815a14.739,14.739,0,0,1-14.7-13.6Z" transform="translate(-63.839 -1.714)"/>
    <path id="Path_94" data-name="Path 94" class="cls-3" d="M712.673,529.535a.833.833,0,0,0-.81.644l-1.934,8.291a.833.833,0,0,0,.749,1.02l109.279,7.767a.84.84,0,0,0,.877-.672l1.86-9.592a.833.833,0,0,0-.768-.989l-109.2-6.466Z" transform="translate(-80.154 -67.281)"/>
    <path id="Path_95" data-name="Path 95" class="cls-3" d="M844.461,583.582a.833.833,0,0,0,.875-.631l2.368-9.612a.833.833,0,0,0-.749-1.03L707.4,562.549a.824.824,0,0,0-.857.594l-2.461,8.306a.833.833,0,0,0,.731,1.066Z" transform="translate(-79.174 -72.812)"/>
    <path id="Path_96" data-name="Path 96" class="cls-3" d="M835.461,620.582a.833.833,0,0,0,.875-.631l2.368-9.612a.833.833,0,0,0-.749-1.03L698.4,599.549a.824.824,0,0,0-.857.594l-2.461,8.306a.833.833,0,0,0,.731,1.066Z" transform="translate(-77.668 -79.001)"/>
    <path id="Path_79" data-name="Path 79" class="cls-3" d="M451.707,748.954c0,6.969-63.791,7.711-142.3,12.618-78.443,4.9-142.3-5.649-142.3-12.618s64.159-20.99,142.3-12.618C387.916,744.747,451.707,741.985,451.707,748.954Z" transform="translate(64.123 -98.903)"/>
    <path id="Path_97" data-name="Path 97" class="cls-4" d="M769.262,682.478c.411.043,1.638-1.243,1.734-1.645l4.159-19.011a.833.833,0,0,0-.738-1.033l-85.7-7.208a.848.848,0,0,0-.883.649l-4.271,19.222a.833.833,0,0,0,.735,1.01Z" transform="translate(-75.744 -88.226)"/>
    <path id="Path_111" data-name="Path 111" class="cls-5" d="M312.252,552.234a8.946,8.946,0,0,0,1.317-13.657l3.47-77.459L299.373,463.1l1.027,75.766a8.993,8.993,0,0,0,11.853,13.363Z" transform="translate(35.227 -39.595)"/>
    <path id="Path_112" data-name="Path 112" class="cls-5" d="M69.534,567.175l10.055,1.768L89.527,531l-13.175-2.609Z" transform="translate(310.173 76.584)"/>
    <path id="Path_113" data-name="Path 113" class="cls-6" d="M0,0H32.086V12.4H12.4A12.4,12.4,0,0,1,0,0Z" transform="translate(407.514 658.271) rotate(-170.029)"/>
    <path id="Path_114" data-name="Path 114" class="cls-5" d="M36.392,573.1H46.6l4.856-39.378H36.39Z" transform="translate(315.717 75.693)"/>
    <path id="Path_115" data-name="Path 115" class="cls-6" d="M0,0H32.086V12.4H12.4A12.4,12.4,0,0,1,0,0H0Z" transform="translate(382.005 658.273) rotate(179.997)"/>
    <path id="Path_116" data-name="Path 116" class="cls-7" d="M362.811,690.406a3.933,3.933,0,0,1-.476-.028l-12.016-.989a4.064,4.064,0,0,1-3.533-4.712l11.929-58.858-7.495-39.533a1.355,1.355,0,0,0-2.681.133L337.5,686.868a4.1,4.1,0,0,1-4.338,3.695l-11.321-.421a4.07,4.07,0,0,1-3.777-3.856l.9-121.385,58.691-7.336,4.1,63.321-.017.067L366.757,687.3a4.069,4.069,0,0,1-3.946,3.105Z" transform="translate(31.891 -55.727)"/>
    <circle id="Ellipse_16" data-name="Ellipse 16" class="cls-5" cx="20.453" cy="20.453" r="20.453" transform="translate(349.757 330.428)"/>
    <path id="Path_117" data-name="Path 117" class="cls-4" d="M355.045,549.472A16.747,16.747,0,0,1,346,546.886c-9.909-6.192-21.16-3.731-26.986-1.713a4.063,4.063,0,0,1-3.515-.4,4.006,4.006,0,0,1-1.852-2.958L303.057,447.2a33.155,33.155,0,0,1,22.707-35.441h0q.842-.264,1.711-.5a32.95,32.95,0,0,1,27.457,4.766,33.476,33.476,0,0,1,14.3,24.443l8.919,95.253a4,4,0,0,1-1.272,3.337C373.748,541.945,364.673,549.471,355.045,549.472Z" transform="translate(34.436 -31.062)"/>
    <path id="Path_118" data-name="Path 118" class="cls-4" d="M321.137,470.275l-23.9-2.628a4.761,4.761,0,0,1-4.085-5.941l6.084-23.188a13.223,13.223,0,1,1,26.278,2.967l.9,23.878a4.761,4.761,0,0,1-5.278,4.913Z" transform="translate(36.084 -33.85)"/>
    <path id="Path_119" data-name="Path 119" class="cls-5" d="M388.428,548.269a8.946,8.946,0,0,0-.338-13.713l-5.89-77.312-17.312,3.9,10.159,75.29a8.993,8.993,0,0,0,13.377,11.838Z" transform="translate(24.058 -38.947)"/>
    <path id="Path_120" data-name="Path 120" class="cls-4" d="M356.614,464.689a4.756,4.756,0,0,1-1.514-3.664l.9-23.878a13.222,13.222,0,1,1,26.277-2.967l6.084,23.188a4.761,4.761,0,0,1-4.085,5.941l-23.9,2.628a4.755,4.755,0,0,1-3.764-1.249Z" transform="translate(25.696 -33.125)"/>
    <path id="Path_121" data-name="Path 121" class="cls-6" d="M336.038,392.04a4.732,4.732,0,0,1-1.083-.126l-.1-.025c-17.982-2.748-21.956-13.167-22.828-17.516-.9-4.5.125-8.85,2.448-10.539-1.267-4-1.063-7.545.605-10.544,2.915-5.229,9.227-6.995,10.076-7.215,5.045-3.721,11.08-1.237,12.179-.734,9.759-3.61,13.49-.605,14.163.066,4.362.784,7.021,2.468,7.9,5.01,1.658,4.772-3.585,10.709-3.809,10.96l-.117.13-7.811.372a5.294,5.294,0,0,0-4.98,6.093h0a24.655,24.655,0,0,0,.8,2.794c1.332,4.169,2.332,7.73,1.044,9.084a2.09,2.09,0,0,1-2.186.379c-1.222-.326-2.05-.258-2.463.2-.641.715-.446,2.527.551,5.1a4.779,4.779,0,0,1-.871,4.869,4.637,4.637,0,0,1-3.519,1.638Z" transform="translate(32.956 -19.936)"/>
  </g>
</svg>
