<svg xmlns="http://www.w3.org/2000/svg" width="661.868" height="487.65" viewBox="0 0 661.868 487.65">
  <defs>
    <style>
      .cls-1 {
        fill: #e6e6e6;
      }

      .cls-2 {
        fill: #ccc;
      }

      .cls-3 {
        fill: #d01961;
      }

      .cls-4 {
        fill: #0b041d;
        opacity: 0.63;
      }

      .cls-5 {
        fill: #3e2679;
      }

      .cls-6 {
        fill: #2f2e41;
      }

      .cls-7 {
        fill: #a0616a;
      }

      .cls-8 {
        fill: #3f3d56;
      }

      .cls-9 {
        fill: #fff;
      }

      .cls-10 {
        fill: #b3b3b3;
      }

      .cls-11 {
        fill: #d0cde1;
      }

      .cls-12 {
        fill: #575a89;
      }

      .cls-13 {
        opacity: 0.2;
      }
    </style>
  </defs>
  <g id="undraw_researching_22gp" transform="translate(0 0)">
    <rect id="Rectangle_3393" data-name="Rectangle 3393" class="cls-1" width="278.207" height="8.161" transform="translate(383.661 180.57)"/>
    <rect id="Rectangle_3394" data-name="Rectangle 3394" class="cls-1" width="70.479" height="70.479" transform="translate(406.659 112.316)"/>
    <rect id="Rectangle_3395" data-name="Rectangle 3395" class="cls-2" width="42.288" height="42.288" transform="translate(420.755 126.412)"/>
    <rect id="Rectangle_3396" data-name="Rectangle 3396" class="cls-1" width="17.805" height="70.479" transform="translate(564.681 112.316)"/>
    <rect id="Rectangle_3397" data-name="Rectangle 3397" class="cls-2" width="17.805" height="8.161" transform="translate(564.681 123.445)"/>
    <rect id="Rectangle_3398" data-name="Rectangle 3398" class="cls-2" width="17.805" height="8.161" transform="translate(564.681 159.055)"/>
    <rect id="Rectangle_3399" data-name="Rectangle 3399" class="cls-1" width="17.805" height="70.479" transform="translate(537.231 112.316)"/>
    <rect id="Rectangle_3400" data-name="Rectangle 3400" class="cls-2" width="17.805" height="8.161" transform="translate(537.231 123.445)"/>
    <rect id="Rectangle_3401" data-name="Rectangle 3401" class="cls-2" width="17.805" height="8.161" transform="translate(537.231 159.055)"/>
    <rect id="Rectangle_3402" data-name="Rectangle 3402" class="cls-1" width="17.805" height="70.479" transform="matrix(0.896, -0.444, 0.444, 0.896, 581.871, 119.926)"/>
    <rect id="Rectangle_3403" data-name="Rectangle 3403" class="cls-2" width="17.805" height="8.161" transform="matrix(0.896, -0.444, 0.444, 0.896, 586.808, 129.899)"/>
    <rect id="Rectangle_3404" data-name="Rectangle 3404" class="cls-2" width="17.805" height="8.161" transform="matrix(0.896, -0.444, 0.444, 0.896, 602.608, 161.812)"/>
    <path id="Path_6464" data-name="Path 6464" class="cls-1" d="M520.891,170.382l8.967,15.53,8.966,15.53H502.958l8.966-15.53Z" transform="translate(-87.895 -29.775)"/>
    <path id="Path_6465" data-name="Path 6465" class="cls-1" d="M539.77,173.978l8.966,15.53,8.967,15.53H521.837l8.966-15.53Z" transform="translate(-91.194 -30.404)"/>
    <circle id="Ellipse_103" data-name="Ellipse 103" class="cls-1" cx="5.193" cy="5.193" r="5.193" transform="translate(449.688 128.638)"/>
    <rect id="Rectangle_3405" data-name="Rectangle 3405" class="cls-1" width="278.207" height="8.161" transform="translate(661.868 76.706) rotate(180)"/>
    <rect id="Rectangle_3406" data-name="Rectangle 3406" class="cls-1" width="70.479" height="70.479" transform="translate(638.87 70.771) rotate(180)"/>
    <rect id="Rectangle_3407" data-name="Rectangle 3407" class="cls-2" width="42.288" height="42.288" transform="translate(624.774 56.675) rotate(180)"/>
    <rect id="Rectangle_3408" data-name="Rectangle 3408" class="cls-1" width="17.805" height="70.479" transform="translate(480.848 70.771) rotate(180)"/>
    <rect id="Rectangle_3409" data-name="Rectangle 3409" class="cls-2" width="17.805" height="8.161" transform="translate(480.848 19.581) rotate(180)"/>
    <rect id="Rectangle_3410" data-name="Rectangle 3410" class="cls-2" width="17.805" height="8.161" transform="translate(480.848 55.191) rotate(180)"/>
    <rect id="Rectangle_3411" data-name="Rectangle 3411" class="cls-1" width="17.805" height="70.479" transform="translate(508.297 70.771) rotate(180)"/>
    <rect id="Rectangle_3412" data-name="Rectangle 3412" class="cls-2" width="17.805" height="8.161" transform="translate(508.297 19.581) rotate(180)"/>
    <rect id="Rectangle_3413" data-name="Rectangle 3413" class="cls-2" width="17.805" height="8.161" transform="translate(508.297 55.191) rotate(180)"/>
    <rect id="Rectangle_3414" data-name="Rectangle 3414" class="cls-1" width="17.805" height="70.479" transform="matrix(-0.896, -0.444, 0.444, -0.896, 432.387, 71.063)"/>
    <rect id="Rectangle_3415" data-name="Rectangle 3415" class="cls-2" width="17.805" height="8.161" transform="matrix(-0.896, -0.444, 0.444, -0.896, 455.099, 25.187)"/>
    <rect id="Rectangle_3416" data-name="Rectangle 3416" class="cls-2" width="17.805" height="8.161" transform="matrix(-0.896, -0.444, 0.444, -0.896, 439.299, 57.1)"/>
    <path id="Path_6466" data-name="Path 6466" class="cls-1" d="M738.447,34.634l-8.966,15.53-8.966,15.53H756.38l-8.967-15.53Z" transform="translate(-125.914 -6.052)"/>
    <path id="Path_6467" data-name="Path 6467" class="cls-1" d="M719.568,38.23,710.6,53.76l-8.966,15.53H737.5l-8.966-15.53Z" transform="translate(-122.615 -6.681)"/>
    <circle id="Ellipse_104" data-name="Ellipse 104" class="cls-1" cx="5.193" cy="5.193" r="5.193" transform="translate(585.454 16.613)"/>
    <rect id="Rectangle_3417" data-name="Rectangle 3417" class="cls-1" width="278.207" height="8.161" transform="translate(661.868 300.756) rotate(180)"/>
    <rect id="Rectangle_3418" data-name="Rectangle 3418" class="cls-1" width="70.479" height="70.479" transform="translate(638.87 294.821) rotate(180)"/>
    <rect id="Rectangle_3419" data-name="Rectangle 3419" class="cls-2" width="42.288" height="42.288" transform="translate(624.774 280.725) rotate(180)"/>
    <rect id="Rectangle_3420" data-name="Rectangle 3420" class="cls-1" width="17.805" height="70.479" transform="translate(480.848 294.821) rotate(180)"/>
    <rect id="Rectangle_3421" data-name="Rectangle 3421" class="cls-2" width="17.805" height="8.161" transform="translate(480.848 243.63) rotate(180)"/>
    <rect id="Rectangle_3422" data-name="Rectangle 3422" class="cls-2" width="17.805" height="8.161" transform="translate(480.848 279.241) rotate(180)"/>
    <rect id="Rectangle_3423" data-name="Rectangle 3423" class="cls-1" width="17.805" height="70.479" transform="translate(508.297 294.821) rotate(180)"/>
    <rect id="Rectangle_3424" data-name="Rectangle 3424" class="cls-2" width="17.805" height="8.161" transform="translate(508.297 243.63) rotate(180)"/>
    <rect id="Rectangle_3425" data-name="Rectangle 3425" class="cls-2" width="17.805" height="8.161" transform="translate(508.297 279.241) rotate(180)"/>
    <rect id="Rectangle_3426" data-name="Rectangle 3426" class="cls-1" width="17.805" height="70.479" transform="matrix(-0.896, -0.444, 0.444, -0.896, 432.387, 295.112)"/>
    <rect id="Rectangle_3427" data-name="Rectangle 3427" class="cls-2" width="17.805" height="8.161" transform="matrix(-0.896, -0.444, 0.444, -0.896, 455.099, 249.237)"/>
    <rect id="Rectangle_3428" data-name="Rectangle 3428" class="cls-2" width="17.805" height="8.161" transform="matrix(-0.896, -0.444, 0.444, -0.896, 439.299, 281.15)"/>
    <path id="Path_6468" data-name="Path 6468" class="cls-1" d="M738.447,306.129l-8.966,15.53-8.966,15.531H756.38l-8.967-15.531Z" transform="translate(-125.914 -53.498)"/>
    <path id="Path_6469" data-name="Path 6469" class="cls-1" d="M719.568,309.725l-8.966,15.53-8.966,15.531H737.5l-8.966-15.531Z" transform="translate(-122.615 -54.126)"/>
    <circle id="Ellipse_105" data-name="Ellipse 105" class="cls-1" cx="5.193" cy="5.193" r="5.193" transform="translate(585.454 240.663)"/>
    <ellipse id="Ellipse_106" data-name="Ellipse 106" class="cls-1" cx="327.729" cy="23.276" rx="327.729" ry="23.276" transform="translate(0 441.098)"/>
    <path id="Path_6470" data-name="Path 6470" class="cls-3" d="M869.7,718.064c-53.439-9.511-111.876-7.93-173.175,0,27.939-23.587,52.052-47.173,24.113-70.76,54.5,11.243,62.132,10.105,122.757,0C829.335,670.891,855.64,694.477,869.7,718.064Z" transform="translate(-285.935 -240.655)"/>
    <path id="Path_6471" data-name="Path 6471" class="cls-4" d="M869.7,718.064c-53.439-9.511-111.876-7.93-173.175,0,27.939-23.587,52.052-47.173,24.113-70.76,54.5,11.243,62.132,10.105,122.757,0C829.335,670.891,855.64,694.477,869.7,718.064Z" transform="translate(-285.935 -240.655)"/>
    <path id="Path_6472" data-name="Path 6472" class="cls-5" d="M859.427,708.893c-45.394-7.592-95.035-6.33-147.106,0,23.733-18.827,44.216-37.654,20.483-56.482,46.294,8.975,52.779,8.066,104.277,0C825.137,671.239,847.482,690.066,859.427,708.893Z" transform="translate(-288.695 -241.547)"/>
    <circle id="Ellipse_107" data-name="Ellipse 107" class="cls-6" cx="24.187" cy="24.187" r="24.187" transform="translate(529.255 388.636)"/>
    <path id="Path_6473" data-name="Path 6473" class="cls-7" d="M531.873,466.249l16.759,2.793,8.38,24.207-24.207,14.9-27.932-41.9h27Z" transform="translate(-88.23 -81.48)"/>
    <circle id="Ellipse_108" data-name="Ellipse 108" class="cls-7" cx="39.104" cy="39.104" r="39.104" transform="translate(452.024 343.803)"/>
    <path id="Path_6474" data-name="Path 6474" class="cls-5" d="M502.072,445.919S407.106,456.16,390.347,454.3s-24.207-3.724-24.207-3.724-11.173,14.9-5.586,21.414a40.29,40.29,0,0,0,11.173,9.311s10.242-2.793,17.69,0,82.863,14.9,95.9,3.724S502.072,445.919,502.072,445.919Z" transform="translate(-226.948 -205.462)"/>
    <path id="Path_6475" data-name="Path 6475" class="cls-5" d="M510.7,660.859s-62.38-17.69-73.553-95.9v-7.448s-12.342,21.653-16.759,26.069c-5.121,5.121-23.276,51.208-22.345,55.863s0,6.517,0,6.517l-27-2.793V634.79S385.47,591.5,386.4,581.255s35.845-81.467,35.845-81.467,13.035-27,35.38,0,24.207,45.621,24.207,45.621L510.7,601.272Z" transform="translate(-229.054 -212.778)"/>
    <path id="Path_6476" data-name="Path 6476" class="cls-6" d="M359.986,444.079l-29.794-10.242s-27.931-20.483-21.414,0,36.311,65.173,44.69,60.518,18.457-16.21,16.211-17.881S352.537,462.7,359.986,444.079Z" transform="translate(-218.001 -201.759)"/>
    <path id="Path_6477" data-name="Path 6477" class="cls-6" d="M366.543,659.259,342.492,671s-29.085,4.475-12.864,12.864,60.966,17.339,63.2,9.508,1.35-20.826-1-20.481S373.255,674.92,366.543,659.259Z" transform="translate(-220.957 -242.744)"/>
    <path id="Path_6478" data-name="Path 6478" class="cls-3" d="M524.851,617.724s-12.1,52.139,8.379,63.311,163.864,13.035,175.037-7.448,5.586-20.483,5.586-20.483L684.06,619.586l24.207-1.862s0-7.448-8.379-8.38-34.449-10.241-56.794-3.724-35.38-13.035-35.38-13.035Z" transform="translate(-255.313 -231.093)"/>
    <path id="Path_6479" data-name="Path 6479" class="cls-8" d="M304.085,270.083l-15.828,86.588L397.19,343.636l19.552-78.208Z" transform="translate(-50.375 -46.385)"/>
    <path id="Path_6480" data-name="Path 6480" class="cls-9" d="M308.626,274.032l-13.035,77.277,99.156-11.638,19.086-70.294Z" transform="translate(-51.656 -47.075)"/>
    <path id="Path_6481" data-name="Path 6481" class="cls-10" d="M291.587,376.924l-3.724-.931L286,379.716l29.794,82.864,2.8-1.071.922-5.446Z" transform="translate(-49.98 -65.707)"/>
    <path id="Path_6482" data-name="Path 6482" class="cls-11" d="M288.257,372.3l29.794,86.588L430.707,442.13,397.19,360.2Z" transform="translate(-50.375 -62.947)"/>
    <path id="Path_6483" data-name="Path 6483" class="cls-8" d="M306.309,369.508v4.655l82.863-9.31-.931-4.655Z" transform="translate(-53.529 -62.947)"/>
    <path id="Path_6484" data-name="Path 6484" class="cls-8" d="M308.565,380.988,321.6,417.3l84.725-10.241-14.9-34.449Z" transform="translate(-53.924 -65.115)"/>
    <path id="Path_6485" data-name="Path 6485" class="cls-7" d="M628.2,591.26l-2.793-7.448S604,546.57,592.823,554.018,616.1,597.777,616.1,597.777h11.173Z" transform="translate(-267.422 -224.18)"/>
    <path id="Path_6486" data-name="Path 6486" class="cls-7" d="M549.383,596.842,546.59,585.67s-7.448-34.449,5.586-32.587,16.759,34.449,16.759,34.449L568,594.98Z" transform="translate(-259.362 -224.176)"/>
    <path id="Path_6487" data-name="Path 6487" class="cls-3" d="M571.965,600.226s-24.207-3.724-25.138,1.862-5.586,89.38,17.69,92.174,138.726,14.9,126.623-13.966-30.725-25.138-30.725-25.138l-79.139,8.379Z" transform="translate(-259.599 -232.215)"/>
    <path id="Path_6488" data-name="Path 6488" class="cls-12" d="M458.4,455.268l-24.672-17.224-16.294,12.569,20.483,22.345Z" transform="translate(-72.95 -76.551)"/>
    <path id="Path_6489" data-name="Path 6489" class="cls-13" d="M386.976,479.224,390.7,514.6l64.243-3.724-55.863-.931Z" transform="translate(-67.626 -83.747)"/>
    <circle id="Ellipse_109" data-name="Ellipse 109" class="cls-6" cx="46.552" cy="46.552" r="46.552" transform="translate(463.878 343.46)"/>
    <path id="Path_6490" data-name="Path 6490" class="cls-3" d="M328.309,302.807l57.725-2.009,5.586-21.267-59.587,1.8Z" transform="translate(-57.374 -48.85)"/>
    <path id="Path_6491" data-name="Path 6491" class="cls-1" d="M310.258,321.023l87.518-2.793.931-3.724-87.518,3.081Z" transform="translate(-54.219 -54.962)"/>
    <path id="Path_6492" data-name="Path 6492" class="cls-1" d="M308,332.3l87.519-2.793.931-3.724-87.519,3.081Z" transform="translate(-53.825 -56.933)"/>
    <path id="Path_6493" data-name="Path 6493" class="cls-1" d="M306.873,341.33l87.518-2.793.932-3.724L307.8,337.894Z" transform="translate(-53.628 -58.51)"/>
  </g>
</svg>
