<svg id="undraw_stepping_up_g6oo" xmlns="http://www.w3.org/2000/svg" width="649.675" height="516.231" viewBox="0 0 649.675 516.231">
  <defs>
    <style>
      .cls-1 {
        fill: #f2f2f2;
      }

      .cls-2 {
        fill: #fff;
      }

      .cls-3 {
        fill: #d01961;
      }

      .cls-4 {
        fill: #3f3d56;
      }

      .cls-5 {
        fill: #a0616a;
      }

      .cls-6 {
        fill: #2f2e41;
      }

      .cls-7 {
        fill: #3e2679;
      }
    </style>
  </defs>
  <path id="Path_6494" data-name="Path 6494" class="cls-1" d="M759.8,701.915c-8.993-7.6-14.455-19.6-13.022-31.288s10.3-22.428,21.813-24.91,24.628,4.388,28.123,15.63c1.924-21.674,4.141-44.257,15.664-62.715,10.434-16.713,28.507-28.672,48.093-30.811s40.208,5.941,52.424,21.4,15.206,37.934,6.651,55.682c-6.3,13.075-17.914,22.805-30.079,30.721A194.129,194.129,0,0,1,756.69,704.671" transform="translate(-275.162 -191.884)"/>
  <path id="Path_6495" data-name="Path 6495" class="cls-2" d="M893.522,574.209A320.325,320.325,0,0,0,799.4,701.478c-.9,2.2,2.675,3.158,3.562.982a316.758,316.758,0,0,1,93.17-125.638C897.979,575.32,895.351,572.72,893.522,574.209Z" transform="translate(-275.162 -191.884)"/>
  <path id="Path_6496" data-name="Path 6496" class="cls-3" d="M434,707.116H383a6.507,6.507,0,0,1-6.5-6.5v-106a6.507,6.507,0,0,1,6.5-6.5h51a6.508,6.508,0,0,1,6.5,6.5v106a6.507,6.507,0,0,1-6.5,6.5Z" transform="translate(-275.162 -191.884)"/>
  <path id="Path_6497" data-name="Path 6497" class="cls-4" d="M555,708.116H504a7.508,7.508,0,0,1-7.5-7.5v-206a7.508,7.508,0,0,1,7.5-7.5h51a7.508,7.508,0,0,1,7.5,7.5v206A7.508,7.508,0,0,1,555,708.116Zm-51-219a5.506,5.506,0,0,0-5.5,5.5v206a5.506,5.506,0,0,0,5.5,5.5h51a5.506,5.506,0,0,0,5.5-5.5v-206a5.506,5.506,0,0,0-5.5-5.5Z" transform="translate(-275.162 -191.884)"/>
  <path id="Path_6498" data-name="Path 6498" class="cls-4" d="M676,708.116H625a7.508,7.508,0,0,1-7.5-7.5v-337a7.508,7.508,0,0,1,7.5-7.5h51a7.508,7.508,0,0,1,7.5,7.5v337A7.508,7.508,0,0,1,676,708.116Zm-51-350a5.506,5.506,0,0,0-5.5,5.5v337a5.506,5.506,0,0,0,5.5,5.5h51a5.506,5.506,0,0,0,5.5-5.5v-337a5.506,5.506,0,0,0-5.5-5.5Z" transform="translate(-275.162 -191.884)"/>
  <path id="Path_6499" data-name="Path 6499" class="cls-3" d="M798.129,707.616h-51a6.507,6.507,0,0,1-6.5-6.5v-475a6.508,6.508,0,0,1,6.5-6.5h51a6.507,6.507,0,0,1,6.5,6.5v475a6.508,6.508,0,0,1-6.5,6.5Z" transform="translate(-275.162 -191.884)"/>
  <path id="Path_6500" data-name="Path 6500" class="cls-5" d="M480.942,414.242a10.056,10.056,0,0,0-10.482-11.309l-17.777-32.609-4,14,12.179,29.886a10.11,10.11,0,0,0,20.08.032Z" transform="translate(-275.162 -191.884)"/>
  <path id="Path_6501" data-name="Path 6501" class="cls-5" d="M68.816,351.113l9.9,7.229,32.595-34.753L96.7,312.92Z"/>
  <path id="Path_6502" data-name="Path 6502" class="cls-6" d="M335.827,548.547h38.531v14.887H350.714a14.887,14.887,0,0,1-14.887-14.887h0Z" transform="matrix(-0.808, -0.59, 0.59, -0.808, 38.892, 1022.537)"/>
  <path id="Path_6503" data-name="Path 6503" class="cls-5" d="M121.2,389.377h12.26l5.832-47.288H121.2Z"/>
  <path id="Path_6504" data-name="Path 6504" class="cls-6" d="M393.737,577.758h38.531v14.887H408.624a14.887,14.887,0,0,1-14.887-14.887Z" transform="translate(550.869 978.499) rotate(179.997)"/>
  <path id="Path_6505" data-name="Path 6505" class="cls-7" d="M433.183,396.825s6,58-9,98l-11,76h-19l2-90-7-80S403.183,364.825,433.183,396.825Z" transform="translate(-275.162 -191.884)"/>
  <path id="Path_6506" data-name="Path 6506" class="cls-7" d="M93.021,208.94l20,69-39,62,19.5,16.5,44.5-69.5-13-85Z"/>
  <circle id="Ellipse_110" data-name="Ellipse 110" class="cls-5" cx="24.561" cy="24.561" r="24.561" transform="translate(119.464 5.092)"/>
  <path id="Path_6507" data-name="Path 6507" class="cls-3" d="M398.683,255.325s15-10,32,12l4.5,138.5s-13-18-40-1-33-2-33-2S343.183,259.825,398.683,255.325Z" transform="translate(-275.162 -191.884)"/>
  <path id="Path_6508" data-name="Path 6508" class="cls-3" d="M429.473,266.975h0a17.506,17.506,0,0,1,16.537,16.56l3.173,60.289,21,57-12,10-39-68L411.2,286.932a17.506,17.506,0,0,1,18.275-19.956Z" transform="translate(-275.162 -191.884)"/>
  <path id="Path_6509" data-name="Path 6509" class="cls-6" d="M401.14,239.961c4.015,4.277,11.472,1.981,12-3.862a7.056,7.056,0,0,0-.009-1.363c-.27-2.588-1.765-4.938-1.407-7.671a4.022,4.022,0,0,1,.736-1.883c3.2-4.285,10.711,1.916,13.73-1.962,1.852-2.378-.325-6.123,1.1-8.781,1.875-3.508,7.43-1.778,10.914-3.7,3.876-2.138,3.644-8.084,1.093-11.7-3.111-4.411-8.567-6.765-13.954-7.1s-10.737,1.117-15.767,3.077c-5.715,2.227-11.381,5.3-14.9,10.33-4.277,6.111-4.688,14.326-2.549,21.471C393.421,231.158,397.861,236.468,401.14,239.961Z" transform="translate(-275.162 -191.884)"/>
  <path id="Path_6510" data-name="Path 6510" class="cls-4" d="M923.647,707.691H276.353a1.191,1.191,0,1,1,0-2.381H923.647a1.191,1.191,0,0,1,0,2.381Z" transform="translate(-275.162 -191.884)"/>
</svg>
