<svg xmlns="http://www.w3.org/2000/svg" width="739.907" height="742.122" viewBox="0 0 739.907 742.122">
  <defs>
    <style>
      .cls-1 {
        fill: #f2f2f2;
      }

      .cls-2 {
        fill: #e6e6e6;
      }

      .cls-3 {
        fill: #fff;
      }

      .cls-4 {
        fill: #ccc;
      }

      .cls-5 {
        fill: #d01961;
      }

      .cls-6 {
        fill: #3f3d56;
      }

      .cls-7 {
        fill: #ffb8b8;
      }

      .cls-8 {
        fill: #2f2e41;
      }

      .cls-9 {
        fill: #3e2679;
      }
    </style>
  </defs>
  <g id="undraw_Access_account_re_8spm" transform="translate(0 0)">
    <path id="Path_1" data-name="Path 1" class="cls-1" d="M298.73,705.5l-6.516-25.7a333.711,333.711,0,0,0-35.407-12.7l-.823,11.944-3.336-13.159c-14.921-4.265-25.073-6.142-25.073-6.142s13.708,52.141,42.47,92l33.51,5.887-26.033,3.754a135.015,135.015,0,0,0,11.641,12.34C331,812.558,377.6,830.375,393.243,813.52s-5.588-62-47.423-100.827c-12.969-12.039-29.262-21.7-45.571-29.3Z" transform="translate(-227.576 -80.33)"/>
    <path id="Path_2" data-name="Path 2" class="cls-1" d="M361.263,677.2l7.707-25.369a333.717,333.717,0,0,0-23.742-29.176l-6.878,9.8,3.946-12.989c-10.57-11.36-18.29-18.213-18.29-18.213s-15.213,51.722-11.2,100.712l25.644,22.361-24.23-10.244a135.011,135.011,0,0,0,3.59,16.583c15.741,54.868,46.421,94.206,68.525,87.864S413.6,762.566,397.858,707.7c-4.879-17.009-13.834-33.7-23.864-48.64Z" transform="translate(-228.137 -79.942)"/>
    <path id="Path_22" data-name="Path 22" class="cls-2" d="M744.864,252.271H740.8V140.914a64.453,64.453,0,0,0-64.453-64.453H440.415a64.453,64.453,0,0,0-64.453,64.453V751.835a64.453,64.453,0,0,0,64.453,64.453H676.346A64.452,64.452,0,0,0,740.8,751.836v-420.3h4.065Z" transform="translate(-228.56 -76.461)"/>
    <path id="Path_23" data-name="Path 23" class="cls-3" d="M679.066,93.336H648.271a22.867,22.867,0,0,1-21.175,31.5H491.934a22.867,22.867,0,0,1-21.173-31.5H442a48.133,48.133,0,0,0-48.133,48.133V751.5A48.133,48.133,0,0,0,442,799.634H679.066A48.133,48.133,0,0,0,727.2,751.5h0V141.467a48.132,48.132,0,0,0-48.132-48.132Z" transform="translate(-228.679 -76.573)"/>
    <path id="Path_6" data-name="Path 6" class="cls-4" d="M531.072,337.8a24.277,24.277,0,0,1,12.153-21.036,24.288,24.288,0,1,0,0,42.066A24.272,24.272,0,0,1,531.072,337.8Z" transform="translate(-229.428 -78.034)"/>
    <path id="Path_7" data-name="Path 7" class="cls-4" d="M561.809,337.8a24.276,24.276,0,0,1,12.153-21.036,24.288,24.288,0,1,0,0,42.067A24.272,24.272,0,0,1,561.809,337.8Z" transform="translate(-229.632 -78.034)"/>
    <circle id="Ellipse_1" data-name="Ellipse 1" class="cls-5" cx="24.288" cy="24.288" r="24.288" transform="translate(337.729 235.48)"/>
    <path id="Path_8" data-name="Path 8" class="cls-4" d="M631.893,413.317H490.338a5.089,5.089,0,0,1-5.083-5.083V266.68a5.089,5.089,0,0,1,5.083-5.083H631.893a5.089,5.089,0,0,1,5.083,5.083V408.234a5.089,5.089,0,0,1-5.083,5.083ZM490.338,263.631a3.053,3.053,0,0,0-3.05,3.05V408.235a3.053,3.053,0,0,0,3.05,3.05H631.893a3.053,3.053,0,0,0,3.05-3.05V266.681a3.053,3.053,0,0,0-3.05-3.05Z" transform="translate(-229.285 -77.689)"/>
    <rect id="Rectangle_1" data-name="Rectangle 1" class="cls-4" width="217.102" height="2.033" transform="translate(217.112 444.136)"/>
    <circle id="Ellipse_2" data-name="Ellipse 2" class="cls-5" cx="6.856" cy="6.856" r="6.856" transform="translate(217.112 417.729)"/>
    <rect id="Rectangle_2" data-name="Rectangle 2" class="cls-4" width="217.102" height="2.033" transform="translate(217.112 512.695)"/>
    <circle id="Ellipse_3" data-name="Ellipse 3" class="cls-5" cx="6.856" cy="6.856" r="6.856" transform="translate(217.112 486.288)"/>
    <path id="Path_6572" data-name="Path 6572" class="cls-5" d="M660.2,670.952h-68.61a4.475,4.475,0,0,1-4.47-4.47V642.434a4.475,4.475,0,0,1,4.47-4.47H660.2a4.475,4.475,0,0,1,4.47,4.47v24.047a4.475,4.475,0,0,1-4.47,4.47Z" transform="translate(-229.961 -80.186)"/>
    <circle id="Ellipse_7" data-name="Ellipse 7" class="cls-5" cx="6.856" cy="6.856" r="6.856" transform="translate(239.477 417.729)"/>
    <circle id="Ellipse_8" data-name="Ellipse 8" class="cls-5" cx="6.856" cy="6.856" r="6.856" transform="translate(261.842 417.729)"/>
    <circle id="Ellipse_9" data-name="Ellipse 9" class="cls-5" cx="6.856" cy="6.856" r="6.856" transform="translate(239.477 486.288)"/>
    <circle id="Ellipse_10" data-name="Ellipse 10" class="cls-5" cx="6.856" cy="6.856" r="6.856" transform="translate(261.842 486.288)"/>
    <path id="Path_88" data-name="Path 88" class="cls-6" d="M964.861,823.522H251.638c-1.527,0-2.764-.542-2.764-1.21s1.237-1.211,2.764-1.211H964.861c1.526,0,2.763.542,2.763,1.211S966.387,823.522,964.861,823.522Z" transform="translate(-227.717 -81.401)"/>
    <path id="Path_6573" data-name="Path 6573" class="cls-7" d="M792.157,565.722a10.021,10.021,0,0,1,1.4.782l44.555-19.016,1.59-11.737,17.8-.109-1.052,26.918-58.807,15.552a10.54,10.54,0,0,1-.445,1.2,10.167,10.167,0,1,1-5.046-13.591Z" transform="translate(-231.226 -79.507)"/>
    <path id="Path_6574" data-name="Path 6574" class="cls-7" d="M636.86,734.707H624.681l-5.793-46.974h17.974Z" transform="translate(-4.105 -4.562)"/>
    <path id="Path_6575" data-name="Path 6575" class="cls-8" d="M615.864,731.518h23.487v14.788H601.076a14.788,14.788,0,0,1,14.788-14.788Z" transform="translate(-3.987 -4.852)"/>
    <path id="Path_6576" data-name="Path 6576" class="cls-7" d="M684.51,731.245l-12.12,1.194-10.372-46.18,17.888-1.762Z" transform="translate(-4.391 -4.54)"/>
    <path id="Path_6577" data-name="Path 6577" class="cls-8" d="M14.788,0H38.275V14.788H0A14.788,14.788,0,0,1,14.788,0Z" transform="translate(644.279 726.736) rotate(-5.625)"/>
    <circle id="Ellipse_414" data-name="Ellipse 414" class="cls-7" cx="24.398" cy="24.398" r="24.398" transform="translate(611.747 357.625)"/>
    <path id="Path_6578" data-name="Path 6578" class="cls-9" d="M849.344,800.773a4.441,4.441,0,0,1-4.386-3.673c-6.3-34.992-26.908-149.408-27.4-152.577a1.42,1.42,0,0,1-.016-.22v-8.531a1.48,1.48,0,0,1,.277-.866l2.722-3.812a1.469,1.469,0,0,1,1.136-.621c15.518-.728,66.341-2.86,68.8.208h0c2.466,3.083,1.595,12.424,1.395,14.265l.01.192,22.833,146.02a4.482,4.482,0,0,1-3.69,5.1l-14.261,2.349a4.491,4.491,0,0,1-4.992-3.072c-4.411-14.094-19.2-61.507-24.327-79.854a.5.5,0,0,0-.974.138c.256,17.489.875,62.109,1.089,77.52l.023,1.66a4.488,4.488,0,0,1-4.066,4.506l-13.752,1.25C849.621,800.767,849.482,800.773,849.344,800.773Z" transform="translate(-231.489 -80.127)"/>
    <path id="Path_99" data-name="Path 99" class="cls-5" d="M852.155,495.239c-4.258,2.531-6.806,7.182-8.268,11.915a112.927,112.927,0,0,0-4.852,26.979l-1.545,27.417-19.127,72.685c16.578,14.027,26.141,10.839,48.457-.635s24.866,3.826,24.866,3.826l4.463-61.845L902.525,508a29.966,29.966,0,0,0-4.829-4.643,49.329,49.329,0,0,0-42.161-8.936Z" transform="translate(-231.495 -79.224)"/>
    <path id="Path_6579" data-name="Path 6579" class="cls-7" d="M846.033,580.47a10.464,10.464,0,0,1,1.491.7l44.054-22.05.731-11.946,18.172-1.253.974,27.231-58.873,19.469a10.426,10.426,0,1,1-6.55-12.151Z" transform="translate(-231.585 -79.575)"/>
    <path id="Path_101" data-name="Path 101" class="cls-5" d="M902.61,508.4c10.839,3.826,12.748,45.271,12.748,45.271-12.752-7.013-28.054,4.463-28.054,4.463s-3.188-10.839-7.014-24.866a24.367,24.367,0,0,1,5.1-22.953S891.771,504.575,902.61,508.4Z" transform="translate(-231.899 -79.318)"/>
    <path id="Path_102" data-name="Path 102" class="cls-8" d="M889.682,467.26c-3.04-2.432-7.187,1.988-7.187,1.988l-2.432-21.887s-15.2,1.821-24.927-.608-11.247,8.816-11.247,8.816a78.058,78.058,0,0,1-.3-13.68c.608-5.472,8.511-10.944,22.495-14.592s21.279,12.16,21.279,12.16C897.087,444.321,892.722,469.692,889.682,467.26Z" transform="translate(-231.661 -78.785)"/>
  </g>
</svg>
